<svg xmlns="http://www.w3.org/2000/svg" xmlns:xlink="http://www.w3.org/1999/xlink" width="500" zoomAndPan="magnify" viewBox="0 0 375 374.999991" height="500" preserveAspectRatio="xMidYMid meet" version="1.0"><defs><g/><clipPath id="0f8c3b5d90"><path d="M 122 107 L 238.242188 107 L 238.242188 274.726562 L 122 274.726562 Z M 122 107 " clip-rule="nonzero"/></clipPath><clipPath id="404e47eb5a"><path d="M 51.492188 71.476562 L 167 71.476562 L 167 239 L 51.492188 239 Z M 51.492188 71.476562 " clip-rule="nonzero"/></clipPath></defs><g clip-path="url(#0f8c3b5d90)"><path fill="#ffffff" d="M 238.175781 273.984375 C 232.804688 265.425781 227.425781 256.867188 222.046875 248.304688 L 213.972656 235.496094 L 205.867188 222.683594 L 189.628906 197.074219 L 174.394531 173.085938 L 194.007812 144.289062 L 199.171875 136.714844 C 200.898438 134.195312 202.613281 131.667969 204.355469 129.15625 L 214.785156 114.082031 L 219.003906 107.992188 L 163.375 107.617188 L 162.203125 109.710938 C 160.488281 112.78125 158.8125 115.867188 157.121094 118.949219 L 155.855469 121.261719 L 154.609375 123.589844 L 152.101562 128.226562 L 147.140625 137.535156 L 144.613281 142.335938 C 143.652344 140.871094 142.6875 139.410156 141.722656 137.953125 L 138.765625 133.527344 L 135.777344 129.117188 L 132.789062 124.71875 L 129.761719 120.339844 C 127.734375 117.421875 125.675781 114.523438 123.585938 111.644531 C 123.527344 111.542969 123.4375 111.476562 123.324219 111.445312 C 123.207031 111.417969 123.097656 111.429688 122.996094 111.492188 C 122.894531 111.550781 122.828125 111.640625 122.796875 111.753906 C 122.765625 111.871094 122.78125 111.980469 122.839844 112.082031 C 124.355469 115.292969 125.914062 118.484375 127.515625 121.660156 L 129.910156 126.414062 L 132.335938 131.15625 L 134.78125 135.882812 L 137.25 140.59375 C 138.910156 143.726562 140.566406 146.863281 142.25 149.984375 L 144.683594 154.488281 L 147.574219 149.949219 C 149.464844 146.980469 151.308594 143.996094 153.175781 141.015625 L 158.722656 132.058594 L 161.476562 127.558594 L 162.847656 125.316406 L 164.210938 123.078125 C 165.589844 120.796875 166.96875 118.519531 168.335938 116.234375 C 169.425781 116.234375 202.683594 116.109375 204.007812 116.082031 L 198.289062 125.15625 C 196.667969 127.746094 195.011719 130.308594 193.375 132.890625 L 188.4375 140.609375 L 168.671875 171.480469 L 167.640625 173.085938 L 168.671875 174.582031 L 185.808594 199.59375 L 202.984375 224.582031 L 211.570312 237.070312 L 220.1875 249.546875 C 225.925781 257.875 231.6875 266.179688 237.464844 274.46875 C 237.53125 274.566406 237.621094 274.625 237.734375 274.648438 C 237.851562 274.671875 237.957031 274.648438 238.050781 274.585938 C 238.148438 274.519531 238.210938 274.429688 238.234375 274.316406 C 238.257812 274.203125 238.238281 274.097656 238.175781 274 Z M 238.175781 273.984375 " fill-opacity="1" fill-rule="nonzero"/></g><g clip-path="url(#404e47eb5a)"><path fill="#ffffff" d="M 162.289062 224.40625 L 159.894531 219.648438 L 157.472656 214.910156 L 155.023438 210.183594 L 152.554688 205.472656 C 150.894531 202.335938 149.242188 199.199219 147.554688 196.082031 L 145.121094 191.574219 L 142.230469 196.121094 C 140.339844 199.082031 138.496094 202.070312 136.628906 205.050781 L 131.078125 214.011719 L 128.328125 218.507812 L 126.953125 220.75 L 125.59375 222.988281 C 124.214844 225.269531 122.847656 227.550781 121.484375 229.832031 C 120.394531 229.832031 87.136719 229.964844 85.8125 229.988281 L 91.511719 220.914062 C 93.140625 218.324219 94.796875 215.757812 96.433594 213.179688 L 101.371094 205.457031 L 121.132812 174.585938 L 122.160156 172.980469 L 121.132812 171.484375 L 104 146.523438 L 86.824219 121.589844 L 78.238281 109.125 L 69.613281 96.679688 C 63.878906 88.375 58.121094 80.085938 52.339844 71.8125 C 52.273438 71.71875 52.1875 71.660156 52.074219 71.640625 C 51.964844 71.617188 51.859375 71.632812 51.761719 71.695312 C 51.664062 71.757812 51.601562 71.847656 51.578125 71.960938 C 51.550781 72.074219 51.566406 72.179688 51.628906 72.28125 C 57.003906 80.828125 62.382812 89.371094 67.757812 97.90625 L 75.832031 110.707031 L 83.9375 123.492188 L 100.171875 149.050781 L 115.40625 172.984375 L 95.808594 201.78125 L 90.644531 209.355469 C 88.914062 211.871094 87.203125 214.402344 85.460938 216.914062 L 75.03125 231.988281 L 70.816406 238.078125 L 126.445312 238.453125 L 127.621094 236.339844 C 129.332031 233.269531 131.011719 230.183594 132.699219 227.101562 L 133.964844 224.789062 L 135.222656 222.46875 L 137.730469 217.832031 L 142.660156 208.535156 L 145.1875 203.738281 L 148.082031 208.113281 L 151.039062 212.539062 L 154.027344 216.953125 L 157.011719 221.351562 L 160.042969 225.730469 C 162.066406 228.648438 164.125 231.542969 166.214844 234.421875 C 166.28125 234.507812 166.367188 234.5625 166.472656 234.585938 C 166.582031 234.605469 166.683594 234.589844 166.777344 234.535156 C 166.871094 234.476562 166.933594 234.398438 166.964844 234.292969 C 166.996094 234.1875 166.992188 234.085938 166.945312 233.988281 C 165.441406 230.785156 163.890625 227.589844 162.289062 224.40625 Z M 162.289062 224.40625 " fill-opacity="1" fill-rule="nonzero"/></g><g fill="#ffffff" fill-opacity="1"><g transform="translate(58.573955, 190.754899)"><g><path d="M 4.65625 0 L 4.65625 -35.4375 L 29.96875 -35.4375 L 29.96875 -30.078125 L 10.625 -30.078125 L 10.625 -20.453125 L 27.9375 -20.453125 L 27.9375 -15.140625 L 10.625 -15.140625 L 10.625 -5.359375 L 30.578125 -5.359375 L 30.578125 0 Z M 14.78125 -38.890625 L 19.796875 -45.875 L 25.765625 -43.34375 L 19.59375 -38.375 Z M 14.78125 -38.890625 "/></g></g></g><g fill="#ffffff" fill-opacity="1"><g transform="translate(94.31614, 190.754899)"><g/></g></g><g fill="#ffffff" fill-opacity="1"><g transform="translate(110.516831, 190.754899)"><g/></g></g><g fill="#ffffff" fill-opacity="1"><g transform="translate(126.717521, 190.754899)"><g/></g></g><g fill="#ffffff" fill-opacity="1"><g transform="translate(142.918212, 190.754899)"><g/></g></g><g fill="#ffffff" fill-opacity="1"><g transform="translate(159.118902, 190.754899)"><g/></g></g><g fill="#ffffff" fill-opacity="1"><g transform="translate(175.319592, 190.754899)"><g/></g></g><g fill="#ffffff" fill-opacity="1"><g transform="translate(191.523169, 190.754899)"><g><path d="M 20.5 -35.84375 C 23.976562 -35.84375 27.148438 -35.046875 30.015625 -33.453125 C 32.890625 -31.867188 35.148438 -29.691406 36.796875 -26.921875 C 38.453125 -24.160156 39.28125 -21.109375 39.28125 -17.765625 C 39.28125 -14.390625 38.453125 -11.316406 36.796875 -8.546875 C 35.148438 -5.785156 32.890625 -3.59375 30.015625 -1.96875 C 27.148438 -0.351562 23.976562 0.453125 20.5 0.453125 C 17.019531 0.453125 13.847656 -0.351562 10.984375 -1.96875 C 8.117188 -3.59375 5.859375 -5.785156 4.203125 -8.546875 C 2.546875 -11.316406 1.71875 -14.390625 1.71875 -17.765625 C 1.71875 -21.109375 2.546875 -24.160156 4.203125 -26.921875 C 5.859375 -29.691406 8.117188 -31.867188 10.984375 -33.453125 C 13.847656 -35.046875 17.019531 -35.84375 20.5 -35.84375 Z M 20.546875 -30.421875 C 18.253906 -30.421875 16.128906 -29.851562 14.171875 -28.71875 C 12.210938 -27.59375 10.660156 -26.066406 9.515625 -24.140625 C 8.367188 -22.222656 7.796875 -20.097656 7.796875 -17.765625 C 7.796875 -15.441406 8.378906 -13.300781 9.546875 -11.34375 C 10.710938 -9.382812 12.265625 -7.832031 14.203125 -6.6875 C 16.140625 -5.539062 18.253906 -4.96875 20.546875 -4.96875 C 22.847656 -4.96875 24.957031 -5.539062 26.875 -6.6875 C 28.800781 -7.832031 30.328125 -9.382812 31.453125 -11.34375 C 32.585938 -13.300781 33.15625 -15.441406 33.15625 -17.765625 C 33.15625 -20.097656 32.585938 -22.222656 31.453125 -24.140625 C 30.328125 -26.066406 28.800781 -27.59375 26.875 -28.71875 C 24.957031 -29.851562 22.847656 -30.421875 20.546875 -30.421875 Z M 20.546875 -30.421875 "/></g></g></g><g fill="#ffffff" fill-opacity="1"><g transform="translate(235.061401, 190.754899)"><g><path d="M 19.1875 -35.4375 C 22.695312 -35.4375 25.84375 -34.675781 28.625 -33.15625 C 31.414062 -31.632812 33.59375 -29.523438 35.15625 -26.828125 C 36.726562 -24.128906 37.515625 -21.09375 37.515625 -17.71875 C 37.515625 -14.34375 36.71875 -11.3125 35.125 -8.625 C 33.539062 -5.945312 31.347656 -3.835938 28.546875 -2.296875 C 25.742188 -0.765625 22.570312 0 19.03125 0 L 4.65625 0 L 4.65625 -35.4375 Z M 19.34375 -5.359375 C 21.601562 -5.359375 23.660156 -5.878906 25.515625 -6.921875 C 27.367188 -7.972656 28.828125 -9.4375 29.890625 -11.3125 C 30.953125 -13.1875 31.484375 -15.304688 31.484375 -17.671875 C 31.484375 -20.035156 30.9375 -22.160156 29.84375 -24.046875 C 28.75 -25.929688 27.253906 -27.40625 25.359375 -28.46875 C 23.472656 -29.539062 21.378906 -30.078125 19.078125 -30.078125 L 10.625 -30.078125 L 10.625 -5.359375 Z M 19.34375 -5.359375 "/></g></g></g><g fill="#ffffff" fill-opacity="1"><g transform="translate(275.410051, 190.754899)"><g><path d="M 20.5 -35.84375 C 23.976562 -35.84375 27.148438 -35.046875 30.015625 -33.453125 C 32.890625 -31.867188 35.148438 -29.691406 36.796875 -26.921875 C 38.453125 -24.160156 39.28125 -21.109375 39.28125 -17.765625 C 39.28125 -14.390625 38.453125 -11.316406 36.796875 -8.546875 C 35.148438 -5.785156 32.890625 -3.59375 30.015625 -1.96875 C 27.148438 -0.351562 23.976562 0.453125 20.5 0.453125 C 17.019531 0.453125 13.847656 -0.351562 10.984375 -1.96875 C 8.117188 -3.59375 5.859375 -5.785156 4.203125 -8.546875 C 2.546875 -11.316406 1.71875 -14.390625 1.71875 -17.765625 C 1.71875 -21.109375 2.546875 -24.160156 4.203125 -26.921875 C 5.859375 -29.691406 8.117188 -31.867188 10.984375 -33.453125 C 13.847656 -35.046875 17.019531 -35.84375 20.5 -35.84375 Z M 20.546875 -30.421875 C 18.253906 -30.421875 16.128906 -29.851562 14.171875 -28.71875 C 12.210938 -27.59375 10.660156 -26.066406 9.515625 -24.140625 C 8.367188 -22.222656 7.796875 -20.097656 7.796875 -17.765625 C 7.796875 -15.441406 8.378906 -13.300781 9.546875 -11.34375 C 10.710938 -9.382812 12.265625 -7.832031 14.203125 -6.6875 C 16.140625 -5.539062 18.253906 -4.96875 20.546875 -4.96875 C 22.847656 -4.96875 24.957031 -5.539062 26.875 -6.6875 C 28.800781 -7.832031 30.328125 -9.382812 31.453125 -11.34375 C 32.585938 -13.300781 33.15625 -15.441406 33.15625 -17.765625 C 33.15625 -20.097656 32.585938 -22.222656 31.453125 -24.140625 C 30.328125 -26.066406 28.800781 -27.59375 26.875 -28.71875 C 24.957031 -29.851562 22.847656 -30.421875 20.546875 -30.421875 Z M 20.546875 -30.421875 "/></g></g></g></svg>